<?xml version="1.0" encoding="UTF-8" ?>
<!DOCTYPE svg PUBLIC "-//W3C//DTD SVG 1.1//EN" "http://www.w3.org/Graphics/SVG/1.1/DTD/svg11.dtd">
<svg width="768pt" height="256pt" viewBox="0 0 768 256" version="1.1" xmlns="http://www.w3.org/2000/svg">
<g id="#ffffffff">
<path fill="#000" opacity="1.00" d=" M 636.58 40.57 C 644.76 37.25 655.56 41.48 658.52 49.98 C 657.84 58.59 656.54 67.19 656.84 75.86 C 670.22 75.93 683.61 75.77 696.99 75.95 C 703.34 76.21 709.97 76.45 715.85 79.14 C 718.53 80.25 721.09 83.46 719.46 86.38 C 717.41 88.88 713.93 89.30 710.92 89.58 C 693.56 90.50 676.20 91.50 658.81 91.73 C 660.20 107.85 664.05 123.87 670.69 138.65 C 678.73 129.31 682.78 117.21 684.13 105.10 C 684.14 102.51 686.49 100.53 689.00 100.51 C 693.75 100.63 698.40 104.19 699.01 109.06 C 700.20 116.82 697.38 124.46 694.62 131.59 C 691.93 138.76 687.21 144.86 682.65 150.91 C 696.31 160.87 712.27 167.71 729.00 170.29 C 736.46 171.40 743.97 172.31 751.27 174.26 C 746.12 185.20 738.41 196.20 726.68 200.64 C 717.36 204.09 707.35 201.08 698.60 197.40 C 684.00 190.86 672.65 179.04 662.75 166.78 C 651.22 177.80 636.17 185.79 619.98 186.24 C 616.56 186.08 612.58 186.19 609.88 183.76 C 608.67 181.15 611.67 178.70 613.99 178.04 C 629.10 172.63 643.82 164.88 654.70 152.83 C 643.82 133.59 639.28 111.55 637.00 89.78 C 620.33 89.67 603.64 90.20 587.02 91.58 C 584.57 91.67 581.99 92.50 580.73 94.76 C 577.33 100.26 576.74 106.90 575.98 113.17 C 586.59 112.31 597.19 110.93 607.54 108.39 C 611.76 107.44 615.50 104.35 620.02 104.92 C 624.32 105.40 628.64 107.16 631.81 110.14 C 634.14 114.68 632.79 120.08 633.13 125.00 C 632.69 133.36 634.46 142.19 631.14 150.15 C 628.39 156.22 624.75 162.43 618.71 165.72 C 610.39 170.92 599.84 174.49 590.23 170.78 C 585.06 169.13 581.71 164.49 579.59 159.75 C 588.36 160.97 598.07 160.89 605.66 155.73 C 610.42 152.57 612.86 146.93 613.25 141.37 C 613.59 136.37 614.36 131.14 612.73 126.28 C 611.78 123.44 609.18 120.97 606.02 121.27 C 595.92 121.26 585.81 122.51 576.05 125.11 C 571.86 141.71 567.78 158.84 558.36 173.38 C 554.11 180.35 546.69 184.70 539.00 186.88 C 531.65 188.91 523.30 187.47 517.36 182.61 C 515.26 180.24 514.26 177.14 512.94 174.32 C 521.32 169.82 531.10 167.01 537.39 159.45 C 547.11 147.22 555.19 133.09 557.67 117.47 C 559.52 106.15 557.81 94.41 553.20 83.94 C 549.82 77.20 555.56 68.30 562.91 68.12 C 569.95 69.77 576.15 73.85 583.05 75.87 C 600.31 77.56 617.71 76.68 635.00 75.88 C 635.01 67.43 634.78 58.95 633.20 50.64 C 632.48 47.05 632.82 42.33 636.58 40.57 Z" />
<path fill="#000" opacity="1.00" d=" M 46.44 43.60 C 53.21 42.24 59.41 45.99 65.85 47.31 C 71.81 48.73 77.97 48.06 84.02 47.90 C 112.00 47.04 140.00 47.09 167.98 47.93 C 174.30 48.07 180.75 48.78 186.96 47.18 C 192.43 45.93 197.87 42.79 203.63 44.49 C 208.68 45.56 211.14 51.72 209.15 56.24 C 205.95 64.75 205.00 73.95 205.79 82.97 C 206.09 86.65 206.23 91.41 202.62 93.59 C 198.34 95.86 193.48 93.73 189.06 93.10 C 174.17 90.78 159.05 90.58 144.02 90.09 C 123.68 89.79 103.31 89.20 83.00 90.46 C 74.50 91.15 65.85 91.89 57.81 94.94 C 53.96 96.29 49.42 97.58 45.60 95.49 C 42.13 93.30 42.29 88.65 42.58 85.05 C 43.57 74.66 42.78 64.17 40.74 53.95 C 39.55 49.70 41.65 44.25 46.44 43.60 M 107.21 62.18 C 105.06 67.17 105.13 72.73 107.16 77.75 C 117.81 77.90 128.45 77.74 139.10 77.84 C 141.79 72.87 140.91 67.09 138.99 62.03 C 128.59 59.32 117.62 59.78 107.21 62.18 M 164.39 60.61 C 155.97 60.38 153.20 71.22 156.57 77.49 C 165.93 80.00 176.06 80.58 185.59 78.56 C 190.04 78.00 190.02 72.40 190.09 68.97 C 189.67 66.41 189.68 62.22 186.37 61.78 C 179.17 60.37 171.71 59.65 164.39 60.61 M 63.65 62.79 C 57.09 63.76 55.22 74.84 61.62 77.49 C 70.57 81.35 80.67 79.59 89.91 77.79 C 92.49 72.84 91.61 67.21 89.86 62.17 C 81.16 61.45 72.23 60.79 63.65 62.79 Z" />
<path fill="#000" opacity="1.00" d=" M 696.54 44.66 C 702.24 42.91 707.14 48.30 708.72 53.26 C 709.97 56.96 707.21 60.49 704.04 62.07 C 697.27 65.62 689.65 67.44 682.04 67.95 C 680.20 67.98 678.05 68.37 676.72 66.78 C 677.20 64.30 679.46 62.83 680.93 60.94 C 684.22 56.90 687.44 52.80 690.86 48.86 C 692.44 47.11 694.24 45.39 696.54 44.66 Z" />
<path fill="#000" opacity="1.00" d=" M 378.41 50.36 C 382.35 48.61 386.64 50.80 389.79 53.19 C 393.16 55.61 395.00 59.89 394.37 64.01 C 393.43 70.27 389.72 75.90 384.84 79.83 C 380.49 83.41 375.71 87.01 370.01 87.93 C 367.81 88.15 364.95 88.45 363.49 86.40 C 362.09 83.59 363.99 80.73 365.18 78.25 C 368.52 72.01 370.70 65.25 372.55 58.45 C 373.42 55.18 375.22 51.86 378.41 50.36 Z" />
<path fill="#000" opacity="1.00" d=" M 428.61 52.61 C 430.23 50.11 433.74 48.69 436.37 50.60 C 439.68 52.91 442.36 56.14 444.28 59.69 C 446.23 63.39 445.63 67.96 443.33 71.36 C 427.21 96.90 408.09 121.14 383.44 138.95 C 412.96 154.65 446.80 160.69 480.00 160.71 C 485.24 160.86 490.46 160.13 495.70 160.43 C 496.02 171.48 488.46 180.75 480.11 187.10 C 474.84 191.62 467.72 192.99 460.98 193.32 C 450.84 193.75 440.92 190.59 431.94 186.09 C 412.73 176.50 393.07 167.82 373.16 159.79 C 370.53 158.81 367.98 157.41 365.16 157.11 C 363.12 157.98 361.32 159.31 359.44 160.47 C 335.65 175.53 307.11 182.67 279.03 181.16 C 273.52 180.70 267.07 181.32 262.74 177.19 C 260.03 174.73 263.11 170.47 266.16 170.33 C 293.87 167.21 320.64 157.94 345.23 144.95 C 338.73 141.82 332.53 137.31 329.45 130.58 C 326.33 123.88 324.99 116.09 326.87 108.86 C 329.76 96.47 330.92 83.65 329.94 70.95 C 329.49 67.40 330.61 62.12 335.10 62.13 C 340.38 62.29 346.55 63.66 349.68 68.32 C 351.84 71.86 350.71 76.14 349.71 79.85 C 347.53 88.45 345.83 97.20 345.21 106.05 C 345.09 110.09 344.77 114.50 346.90 118.12 C 350.43 123.59 355.61 127.75 361.14 131.06 C 386.32 115.75 404.87 91.87 420.05 67.05 C 423.07 62.34 425.41 57.21 428.61 52.61 Z" />
<path fill="#000" opacity="1.00" d=" M 303.48 85.49 C 306.93 84.54 309.05 88.35 309.82 91.13 C 311.85 99.42 309.90 108.01 308.07 116.15 C 305.85 124.97 302.65 134.39 295.10 140.08 C 292.35 142.38 288.35 142.36 285.31 140.68 C 281.77 138.80 277.78 136.21 277.16 131.90 C 276.57 127.35 279.11 123.21 281.64 119.66 C 287.63 111.55 293.42 103.26 298.50 94.55 C 300.33 91.62 301.01 87.99 303.48 85.49 Z" />
<path fill="#000" opacity="1.00" d=" M 154.82 94.81 C 158.12 92.54 162.46 91.04 166.33 92.74 C 170.24 94.60 172.89 98.38 176.95 100.00 C 181.19 101.93 186.10 100.86 190.38 102.55 C 194.07 104.09 194.00 109.85 191.08 112.08 C 187.53 114.91 183.87 117.64 180.76 120.97 C 192.37 120.88 204.11 119.67 215.63 121.64 C 218.89 122.03 222.22 124.37 222.33 127.90 C 221.54 130.52 218.42 131.03 216.07 131.10 C 206.06 131.25 196.05 131.01 186.04 131.14 C 184.55 130.94 183.16 131.72 182.82 133.24 C 181.67 135.81 183.19 138.43 184.00 140.86 C 192.68 140.96 201.37 140.74 210.05 140.91 C 212.95 140.76 215.32 143.41 215.80 146.09 C 215.86 148.98 212.72 150.99 210.05 150.80 C 202.03 150.96 194.00 150.65 185.98 150.84 C 183.60 150.39 182.41 153.04 182.34 155.00 C 182.41 156.99 183.39 158.79 184.11 160.61 C 191.74 160.52 199.38 160.61 207.02 160.52 C 209.61 160.57 212.69 160.23 214.61 162.40 C 217.63 165.17 214.19 170.22 210.75 170.45 C 201.78 170.72 192.80 170.30 183.84 170.62 C 183.29 173.79 183.39 177.02 183.96 180.19 C 204.39 179.40 224.89 178.64 245.30 180.34 C 241.40 187.70 235.72 195.50 227.02 197.16 C 221.14 198.45 216.01 194.65 210.40 193.79 C 205.01 192.87 199.53 192.53 194.07 192.24 C 174.52 191.36 154.94 191.71 135.39 192.18 C 134.87 200.26 124.41 204.90 118.08 199.93 C 113.13 195.88 113.10 188.77 113.46 182.94 C 114.71 164.44 115.33 145.88 115.16 127.34 C 108.71 126.50 102.52 123.68 97.76 119.25 C 96.00 117.12 94.59 113.92 95.86 111.23 C 97.24 109.35 99.84 109.56 101.90 109.32 C 112.69 109.04 123.24 106.53 133.63 103.79 C 141.06 101.81 148.37 99.07 154.82 94.81 M 158.45 108.38 C 151.07 111.76 144.08 116.03 137.65 121.00 C 145.78 121.35 153.92 121.17 162.05 121.18 C 165.59 121.44 168.28 118.49 169.97 115.72 C 171.36 113.62 169.97 111.05 167.93 110.04 C 165.09 108.58 161.59 106.74 158.45 108.38 M 140.15 133.26 C 136.96 134.25 137.41 138.27 136.86 140.88 C 144.84 142.17 152.98 142.11 160.96 140.87 C 162.54 137.60 162.57 132.92 158.70 131.30 C 152.49 130.89 146.12 131.50 140.15 133.26 M 136.76 152.76 C 136.14 155.30 136.11 157.91 136.47 160.49 C 144.48 160.50 152.51 160.84 160.50 160.39 C 164.41 159.41 164.14 153.73 160.32 152.81 C 152.59 151.04 144.55 151.87 136.76 152.76 M 136.81 170.55 C 136.00 173.81 135.81 177.23 136.97 180.44 C 144.66 180.91 152.58 182.20 160.16 180.28 C 163.84 178.36 162.21 173.62 161.08 170.60 C 152.99 170.43 144.90 170.51 136.81 170.55 Z" />
<path fill="#000" opacity="1.00" d=" M 67.16 96.17 C 69.13 94.53 71.29 92.66 74.00 92.62 C 78.40 92.58 83.38 95.35 83.96 100.07 C 84.58 103.09 82.08 105.40 79.62 106.59 C 71.00 110.98 62.40 115.53 54.55 121.24 C 60.83 122.83 67.42 123.43 73.87 122.88 C 79.37 120.85 82.42 115.22 87.51 112.56 C 89.68 111.42 92.28 112.60 93.45 114.60 C 96.41 118.72 97.38 125.43 92.91 128.88 C 83.74 135.47 73.81 140.93 64.27 146.96 C 68.00 149.82 72.21 152.43 77.01 152.84 C 80.51 153.29 83.92 152.21 87.19 151.09 C 85.93 148.79 84.25 146.60 83.77 143.96 C 83.41 139.79 87.59 135.29 91.92 136.65 C 95.86 137.81 98.17 141.57 100.07 144.95 C 102.34 149.42 104.39 154.11 105.37 159.05 C 105.51 161.32 105.10 165.22 101.98 164.80 C 97.61 163.85 94.96 159.81 91.84 156.95 C 88.00 160.59 83.60 164.35 78.03 164.53 C 70.90 165.30 65.01 160.12 58.04 159.77 C 53.35 159.24 48.85 160.84 44.53 162.44 C 40.34 164.02 35.66 163.06 31.72 161.22 C 28.99 160.11 27.38 156.53 28.89 153.87 C 30.28 151.31 32.83 149.65 35.42 148.47 C 46.05 144.15 56.04 138.28 65.16 131.32 C 58.04 132.02 50.86 132.37 43.74 131.56 C 39.35 130.91 34.20 132.65 30.53 129.42 C 28.14 127.77 27.70 124.48 28.91 121.98 C 30.38 118.76 33.78 117.17 36.85 115.85 C 48.11 111.33 58.06 104.10 67.16 96.17 Z" />
<path fill="#000" opacity="1.00" d=" M 455.47 94.48 C 458.54 93.17 461.88 94.81 464.45 96.51 C 469.08 99.70 473.23 105.07 472.09 111.02 C 471.02 116.07 467.52 120.43 463.37 123.35 C 455.05 127.81 445.45 130.37 435.98 129.19 C 433.83 128.84 431.12 129.09 429.56 127.30 C 428.31 124.88 430.78 122.84 432.32 121.32 C 439.75 114.69 446.36 107.13 451.81 98.79 C 452.90 97.26 453.85 95.52 455.47 94.48 Z" />
<path fill="#000" opacity="1.00" d=" M 83.82 170.94 C 83.77 167.57 87.61 166.09 90.23 165.03 C 92.66 163.76 95.13 165.59 96.47 167.56 C 99.18 171.48 100.30 176.22 101.43 180.78 C 102.50 185.83 103.95 191.01 102.95 196.21 C 100.32 194.92 98.08 193.00 96.23 190.75 C 91.01 184.91 86.94 178.09 83.82 170.94 Z" />
<path fill="#000" opacity="1.00" d=" M 39.45 166.58 C 43.43 165.27 48.90 167.47 49.29 172.03 C 49.36 176.06 46.64 179.33 44.42 182.43 C 39.90 188.77 34.76 194.88 28.14 199.12 C 25.78 200.57 22.96 201.69 20.15 201.21 C 17.72 200.48 17.94 197.00 19.42 195.45 C 23.32 190.88 27.22 186.18 29.52 180.56 C 31.73 175.36 33.26 168.38 39.45 166.58 Z" />
<path fill="#000" opacity="1.00" d=" M 62.59 166.53 C 66.07 164.45 70.26 165.81 73.99 166.29 C 75.24 173.62 74.20 181.10 72.43 188.25 C 71.57 191.32 70.11 194.58 67.28 196.28 C 64.97 197.79 62.90 194.57 62.34 192.61 C 60.92 186.87 60.50 180.91 60.14 175.02 C 60.10 172.10 59.81 168.38 62.59 166.53 Z" />
</g>
</svg>
